# xmcd
#
# Track frame offsets:
#	150
#	14289
#	26785
#	38796
#	50938
#	65994
#	79283
#	92150
#	104966
#	116786
#	128416
#	141450
#	153946
#	166628
#	178128
#	191964
#
# Disc length: 2734 seconds
#
# Revision: 3
# Processed by: cddbd v1.5.1PL0 Copyright (c) Steve Scherf et al.
# Submitted via: EasyCDDAExtractor 7.0.6.1
#
DISCID=f00aac10
DTITLE=Various Artist - Hank Snow-Bill Monroe  Country Superstars
DYEAR=1900
DGENRE=Country
TTITLE0=Hank Snow - The Blue Velvet Band
TTITLE1=Hank Snow - I'll Tell The World That I Love You
TTITLE2=Hank Snow - Brand On My Heart
TTITLE3=Hank Snow - Two Timin' Woman
TTITLE4=Hank Snow - Wasted Love
TTITLE5=Hank Snow - Linda Lou
TTITLE6=Hank Snow - Just Waiting For You
TTITLE7=Hank Snow - Blue Ranger
TTITLE8=Bill Monroe - Rocky Road Blues
TTITLE9=Bill Monroe - Orange Blossom Special
TTITLE10=Bill Monroe - Tennessee Blues
TTITLE11=Bill Monroe - Mule Skinner Blues
TTITLE12=Bill Monroe - Were You There?
TTITLE13=Bill Monroe - Honky Tonk Swing
TTITLE14=Bill Monroe - Six White Horses
TTITLE15=Bill Monroe - I Wonder If You Feel The Way I Do
EXTD=
EXTT0=
EXTT1=
EXTT2=
EXTT3=
EXTT4=
EXTT5=
EXTT6=
EXTT7=
EXTT8=
EXTT9=
EXTT10=
EXTT11=
EXTT12=
EXTT13=
EXTT14=
EXTT15=
PLAYORDER=
